<?xml version="1.0" standalone="no"?>
<!DOCTYPE svg PUBLIC "-//W3C//DTD SVG 20010904//EN"
 "http://www.w3.org/TR/2001/REC-SVG-20010904/DTD/svg10.dtd">
<svg version="1.0" xmlns="http://www.w3.org/2000/svg"
 width="1536.000000pt" height="1024.000000pt" viewBox="0 0 1536.000000 1024.000000"
 preserveAspectRatio="xMidYMid meet">

<g transform="translate(0.000000,1024.000000) scale(0.100000,-0.100000)"
fill="#000000" stroke="none">
<path d="M15250 10190 c-130 -30 -848 -190 -1015 -226 -88 -18 -209 -45 -270
-58 -243 -54 -302 -67 -350 -77 -27 -5 -75 -16 -105 -24 -66 -18 -450 -108
-725 -171 -110 -25 -263 -60 -340 -79 -152 -37 -317 -74 -435 -99 -107 -22
-365 -80 -575 -131 -99 -24 -199 -46 -222 -49 -49 -6 -296 -61 -613 -136 -118
-28 -255 -59 -305 -70 -49 -11 -182 -41 -295 -68 -113 -27 -250 -59 -305 -72
-55 -12 -161 -37 -235 -55 -74 -18 -184 -43 -245 -55 -60 -11 -144 -30 -185
-40 -41 -11 -122 -29 -180 -40 -58 -12 -139 -30 -180 -40 -41 -10 -156 -35
-255 -55 -99 -20 -317 -70 -485 -110 -168 -40 -386 -92 -485 -114 -99 -23
-207 -48 -240 -56 -183 -43 -195 -43 -430 10 -219 49 -374 55 -408 17 -36 -40
-34 -28 -121 -677 -49 -365 -43 -341 -100 -395 -149 -139 -174 -166 -302 -322
-8 -11 -28 -18 -46 -18 -18 0 -40 -5 -48 -10 -14 -10 10 -8 78 6 12 2 21 1 20
-4 -2 -4 28 -62 66 -128 104 -180 107 -184 118 -184 29 0 -204 -244 -268 -281
-70 -40 -78 -54 -13 -23 28 14 57 23 63 21 6 -3 38 -84 70 -182 33 -97 68
-187 78 -201 l19 -24 -107 -124 -106 -125 -107 -45 c-110 -46 -224 -82 -276
-88 -28 -3 -33 3 -106 122 -52 86 -73 130 -68 140 10 18 75 158 135 290 l44
94 -28 30 c-15 17 -52 57 -82 89 -30 32 -58 64 -62 72 -5 8 26 75 77 170 47
86 85 159 85 162 0 15 61 51 189 114 79 38 141 72 138 75 -5 6 -81 -28 -244
-108 l-103 -51 -34 27 c-19 14 -50 41 -70 59 l-36 34 70 128 c39 70 69 130 67
132 -2 2 -33 -47 -68 -109 -35 -61 -76 -123 -92 -137 -15 -14 -120 -73 -234
-131 -113 -58 -208 -112 -211 -120 -4 -12 -2 -12 14 1 10 9 30 20 44 24 25 7
336 166 376 192 20 13 26 10 75 -34 106 -95 103 -91 85 -118 -9 -13 -43 -77
-77 -142 -33 -65 -68 -126 -77 -137 -10 -10 -47 -33 -84 -52 -82 -41 -98 -62
-26 -33 85 34 107 41 117 37 15 -5 143 -152 151 -173 5 -13 -3 -43 -25 -90
-56 -122 -116 -249 -127 -273 -12 -24 -80 -69 -138 -92 -19 -7 -80 -33 -135
-58 -55 -24 -117 -50 -138 -58 l-38 -13 -57 51 c-31 29 -73 70 -94 92 -20 23
-40 37 -45 33 -4 -5 34 -49 84 -98 76 -72 93 -94 93 -118 0 -49 -204 -418
-248 -448 -9 -6 -86 -34 -170 -62 -84 -28 -181 -65 -216 -81 -35 -17 -66 -30
-69 -30 -9 0 -97 149 -97 165 0 7 36 85 81 172 44 87 91 185 104 218 l23 60
168 85 c171 86 215 111 246 142 20 20 174 321 183 358 5 21 -5 36 -60 93 -75
78 -79 97 -37 160 34 51 90 150 102 182 16 43 -13 17 -38 -33 -13 -26 -44 -81
-69 -122 l-46 -75 -141 -69 c-136 -66 -296 -154 -296 -162 0 -6 46 14 102 44
173 96 311 161 323 154 18 -9 145 -150 145 -160 0 -4 -13 -32 -28 -62 -153
-300 -150 -294 -199 -327 -62 -42 -343 -183 -365 -183 -10 0 -39 34 -73 85
l-56 85 68 135 c65 132 72 157 62 228 -1 10 -17 32 -34 50 l-32 32 36 60 c47
78 125 244 118 251 -3 3 -35 -54 -72 -128 -36 -73 -71 -140 -78 -148 -22 -27
-263 -167 -413 -240 -49 -24 -84 -45 -77 -47 17 -6 109 40 308 151 187 105
184 104 216 31 24 -54 15 -94 -50 -230 -50 -103 -75 -137 -118 -165 -15 -10
-14 -10 9 -6 14 3 34 9 45 13 10 3 15 3 11 -1 -4 -5 18 -46 48 -92 34 -54 54
-95 54 -114 0 -18 -40 -108 -98 -222 l-98 -193 -75 -40 c-91 -49 -276 -125
-315 -130 -25 -3 -34 4 -62 43 -24 33 -31 39 -26 22 3 -14 15 -37 25 -51 l18
-26 -119 -240 c-110 -225 -121 -243 -164 -272 -40 -28 -107 -61 -347 -175 -33
-15 -64 -24 -74 -20 -15 6 -16 4 -6 -14 10 -19 -2 -49 -97 -234 -98 -192 -113
-215 -148 -235 -42 -24 -376 -163 -392 -163 -14 0 -79 100 -87 133 -6 21 8 53
69 161 42 74 94 173 115 219 22 46 45 88 53 93 7 6 60 30 118 53 58 24 133 58
167 77 34 19 69 34 78 34 9 0 13 4 10 10 -3 5 1 20 10 33 49 75 172 323 201
405 10 28 22 52 27 52 4 0 72 32 150 71 280 139 280 139 405 387 l100 197 59
34 c32 19 78 47 103 62 25 15 76 43 113 63 42 22 60 36 47 36 -11 0 -88 -39
-171 -86 -95 -54 -156 -83 -167 -79 -9 3 -32 26 -51 50 -18 25 -37 42 -42 39
-5 -3 11 -29 36 -57 25 -28 45 -56 45 -61 0 -5 -40 -92 -90 -193 -69 -142 -99
-194 -131 -224 -27 -25 -113 -75 -235 -137 l-194 -97 -42 42 -43 43 17 32 c45
87 129 275 139 312 6 22 17 51 25 64 8 12 12 22 9 22 -17 0 -39 -37 -62 -102
-13 -40 -52 -129 -86 -197 -64 -130 -72 -138 -157 -171 -65 -25 -265 -121
-280 -135 -13 -12 -20 -8 -48 25 l-32 39 56 106 c44 82 57 118 60 160 2 33 0
57 -7 61 -8 5 -10 -7 -7 -37 3 -36 -3 -58 -35 -123 -62 -127 -80 -149 -153
-194 -81 -49 -78 -54 6 -12 33 17 63 30 67 30 4 -1 21 -17 36 -38 39 -50 34
-72 -50 -223 -38 -68 -80 -145 -93 -172 -17 -32 -36 -52 -60 -63 -306 -140
-381 -176 -377 -181 7 -6 112 34 187 72 100 51 231 105 224 94 -3 -5 13 -32
35 -60 23 -29 41 -58 41 -67 0 -23 -49 -127 -119 -252 -35 -63 -74 -133 -85
-155 -25 -47 -85 -83 -246 -146 -58 -22 -119 -49 -135 -58 -27 -16 -32 -16
-46 -2 -20 21 -89 117 -89 125 0 3 28 49 63 103 77 119 141 232 135 239 -3 2
-48 -66 -102 -151 -53 -85 -110 -165 -125 -177 -15 -13 -65 -40 -112 -61 -145
-66 -249 -120 -249 -129 0 -12 5 -10 43 12 19 11 92 45 162 75 70 30 137 62
148 72 11 10 22 14 24 8 3 -10 43 -71 77 -118 18 -26 18 -27 -12 -91 -37 -79
-238 -421 -255 -433 -7 -5 -59 -29 -117 -53 -58 -24 -140 -58 -184 -76 -43
-19 -82 -32 -86 -29 -4 2 -21 34 -39 71 l-31 66 32 56 c17 32 58 99 90 150 84
133 150 265 142 285 -10 27 -24 19 -24 -14 0 -28 -59 -141 -135 -259 -12 -19
-44 -72 -70 -117 -29 -51 -56 -85 -69 -89 -20 -5 -257 -104 -301 -125 -11 -5
-34 -13 -51 -18 l-31 -9 -23 64 c-26 74 -45 88 -23 17 8 -27 17 -55 19 -63 5
-14 -38 -103 -140 -294 -20 -38 -34 -71 -31 -74 7 -7 5 -10 55 88 23 47 48 92
55 100 7 8 26 42 42 75 28 58 29 60 103 88 41 15 86 32 100 36 14 5 60 25 104
46 43 20 93 39 111 42 31 5 32 4 64 -70 39 -89 50 -58 -110 -302 -140 -214
-187 -276 -219 -292 -28 -14 -272 -120 -309 -134 -13 -5 -21 -12 -18 -15 7 -8
169 54 292 111 l91 42 86 134 c48 74 124 190 170 259 l83 125 110 43 c61 23
140 56 176 72 36 17 72 30 80 30 8 0 33 -37 57 -86 l42 -85 -19 -42 c-10 -23
-68 -121 -129 -217 -121 -192 -117 -189 -272 -257 -91 -39 -139 -70 -85 -54
43 13 178 71 190 82 17 17 44 9 48 -13 4 -21 4 -21 6 3 0 14 35 77 76 140 105
162 182 288 199 331 9 20 21 40 28 45 19 12 371 163 380 163 4 0 33 -38 64
-85 45 -70 55 -91 49 -113 -8 -35 -111 -223 -231 -422 l-93 -155 -98 -37
c-209 -78 -285 -101 -294 -86 -5 7 -23 52 -41 100 -31 82 -48 108 -48 73 0 -9
13 -45 30 -81 55 -121 54 -123 -45 -284 -28 -47 -92 -152 -140 -235 -49 -82
-96 -157 -104 -166 -9 -9 -81 -37 -161 -63 -80 -25 -163 -55 -185 -66 -22 -11
-44 -20 -50 -20 -6 0 -30 48 -52 107 l-42 106 21 41 c23 45 192 322 245 401
18 27 33 54 33 58 0 5 9 20 20 34 19 25 19 25 0 46 -11 11 -20 25 -20 31 0 5
-3 7 -6 4 -3 -3 0 -15 7 -25 15 -25 -1 -55 -144 -283 -61 -96 -127 -203 -146
-238 l-36 -64 -85 -28 c-47 -15 -115 -36 -153 -46 -79 -20 -128 -47 -62 -34
56 11 148 36 223 61 69 23 88 21 101 -13 77 -188 81 -209 55 -259 -16 -32
-277 -444 -325 -516 -16 -23 -29 -48 -29 -55 1 -19 37 27 111 143 37 57 102
158 145 224 42 66 90 145 106 175 15 30 33 61 40 69 8 10 8 18 -1 33 -7 11 -8
18 -4 15 5 -3 21 0 35 7 45 24 338 117 347 111 5 -3 26 -57 47 -120 32 -101
35 -119 25 -142 -7 -15 -67 -115 -133 -223 -67 -107 -143 -231 -171 -275 -44
-71 -55 -82 -101 -102 -28 -12 -80 -29 -116 -37 -153 -38 -204 -54 -208 -66
-3 -8 0 -10 7 -5 7 4 22 8 34 9 12 2 72 18 132 36 139 41 177 50 185 45 4 -3
20 -39 35 -82 26 -73 45 -110 45 -87 0 5 -11 41 -25 79 -13 39 -25 79 -25 91
0 11 73 138 163 282 89 143 174 280 188 304 24 40 31 45 100 63 41 11 79 18
86 17 6 -1 66 16 132 38 66 22 124 40 128 40 5 0 42 -66 83 -146 l74 -146 -42
-81 c-53 -104 -202 -366 -272 -478 -58 -93 -59 -94 -180 -124 -96 -24 -198
-54 -254 -76 -73 -28 -92 -26 -107 16 -19 52 -27 43 -16 -18 l9 -52 -91 -139
c-50 -77 -91 -143 -91 -148 0 -25 25 5 102 125 48 72 100 145 117 161 24 23
64 38 202 77 94 27 183 51 197 54 37 6 58 -10 78 -60 21 -57 29 -53 9 5 -8 23
-15 50 -15 60 0 10 23 53 52 96 57 87 247 418 306 531 l37 72 85 35 c131 54
293 116 296 113 1 -1 24 -50 52 -109 28 -60 60 -121 71 -137 30 -42 26 -69
-25 -168 -55 -104 -222 -397 -287 -503 -33 -55 -43 -78 -35 -87 6 -7 16 -13
22 -12 7 0 7 2 -1 5 -9 4 -7 14 6 37 32 55 77 130 113 187 52 81 128 218 247
445 14 28 30 53 36 58 5 4 48 19 95 33 47 14 137 42 200 62 63 20 122 37 130
38 17 1 180 -252 180 -279 0 -20 -295 -609 -331 -662 -20 -29 -42 -46 -81 -61
-29 -12 -76 -31 -105 -43 -28 -12 -64 -26 -79 -31 -15 -6 -24 -13 -21 -16 6
-7 178 56 237 86 22 11 42 20 45 20 3 0 16 -24 29 -53 14 -29 35 -61 47 -72
21 -19 21 -17 -4 28 -59 108 -67 78 129 471 162 325 177 352 207 362 18 7 102
26 187 44 181 37 173 36 225 44 l40 7 34 -93 c18 -51 44 -122 58 -158 49 -124
52 -111 -106 -429 -124 -248 -155 -320 -122 -285 15 15 90 160 180 349 48 99
91 188 97 198 10 18 163 48 321 62 40 4 99 13 130 20 45 11 61 11 69 2 14 -14
44 -106 79 -242 15 -55 31 -116 37 -136 10 -38 9 -43 -67 -204 -13 -27 -22
-52 -20 -54 13 -12 34 16 58 75 47 121 55 129 133 142 38 7 139 19 224 28 85
9 163 20 172 25 37 20 35 24 84 -163 18 -70 33 -108 42 -108 8 0 11 7 9 18 -3
9 -22 77 -42 150 l-38 134 62 146 c35 81 99 238 144 350 80 201 81 202 116
212 67 17 186 35 213 32 30 -4 31 -8 83 -277 l28 -139 -32 -201 c-18 -110 -39
-243 -47 -295 -8 -52 -17 -103 -20 -112 -5 -17 10 -18 228 -18 l234 0 28 223
c15 122 31 242 36 267 6 32 43 96 129 225 66 99 125 186 131 193 10 11 68 12
293 8 l282 -6 16 -57 c10 -32 43 -150 74 -263 31 -113 63 -227 72 -253 8 -26
18 -73 23 -105 8 -55 7 -59 -31 -122 -22 -36 -47 -75 -56 -88 -13 -18 -13 -22
-1 -22 8 0 40 38 72 85 l58 85 380 2 c245 2 382 -1 387 -7 4 -5 20 -45 35 -87
16 -43 32 -78 37 -78 14 0 12 9 -21 98 -16 46 -30 88 -30 95 0 7 26 42 58 78
31 36 122 144 202 239 202 242 176 220 262 220 40 1 93 3 118 5 25 1 115 6
200 10 148 6 335 18 466 31 l62 5 52 -98 c29 -54 125 -230 214 -392 l161 -294
390 9 c214 5 451 9 526 9 108 0 135 3 131 13 -2 7 5 23 16 35 24 26 102 146
209 322 44 72 102 166 129 210 28 44 74 122 103 173 29 50 61 97 72 103 11 5
88 19 172 30 193 24 657 94 762 114 44 8 100 18 125 21 l45 6 60 -81 c33 -45
91 -123 128 -174 38 -50 83 -112 101 -137 17 -25 53 -74 79 -110 26 -36 76
-103 109 -150 186 -256 290 -390 303 -390 7 0 -34 63 -93 143 -59 78 -177 239
-262 356 -85 118 -189 259 -230 315 -119 160 -180 245 -180 251 0 3 61 135
137 293 75 158 165 350 199 427 l63 140 83 11 c46 6 128 20 183 32 55 11 152
30 215 42 63 12 158 30 210 41 52 11 133 27 180 35 47 8 110 21 141 29 76 20
81 19 121 -12 113 -90 651 -578 866 -785 l113 -109 -37 -77 c-51 -107 -147
-313 -314 -676 -149 -326 -162 -351 -186 -360 -23 -9 -327 -33 -698 -56 -187
-12 -365 -25 -395 -29 l-56 -9 70 -1 c72 -1 630 31 835 48 63 6 147 13 187 16
l72 5 32 -35 c41 -45 59 -46 25 -1 -14 19 -26 41 -26 49 0 8 31 81 69 163 38
82 139 302 226 489 199 432 206 445 224 454 15 8 53 15 151 27 25 3 83 11 130
19 131 21 220 34 280 40 152 16 220 29 220 42 0 9 -8 12 -22 9 -53 -11 -161
-27 -278 -41 -69 -8 -165 -21 -215 -29 -148 -24 -233 -36 -254 -36 -13 0 -67
44 -138 113 -65 63 -163 154 -218 203 -55 49 -136 123 -180 165 -92 88 -402
360 -458 402 -21 16 -37 37 -37 48 0 21 373 956 387 970 7 7 158 34 413 74 58
9 206 34 330 57 124 22 281 48 350 58 l125 18 40 -37 c74 -69 146 -124 153
-116 4 4 -4 16 -18 27 -14 11 -58 49 -97 85 -81 72 -85 82 -54 160 42 109 171
534 171 565 -1 30 -2 28 -20 -22 -10 -30 -39 -122 -65 -205 -88 -285 -128
-406 -140 -422 -12 -17 -213 -55 -725 -138 -118 -19 -270 -45 -337 -57 l-122
-21 -53 41 c-29 22 -117 92 -195 154 -78 62 -224 177 -325 255 -101 78 -192
150 -201 161 -18 19 -17 22 9 74 28 55 93 200 241 538 47 107 95 205 106 217
12 12 40 24 62 27 71 11 97 17 255 63 85 25 200 57 255 73 55 15 141 40 190
55 50 15 131 40 180 55 50 15 95 29 100 31 6 2 31 -11 56 -28 80 -55 462 -283
474 -283 4 0 37 -17 73 -38 150 -86 182 -102 182 -90 0 7 -59 45 -130 83 -72
39 -188 103 -258 144 -70 41 -140 81 -157 90 -49 27 -203 130 -210 141 -6 10
172 466 267 686 l39 91 67 18 c132 34 382 117 382 126 0 12 -12 11 -47 -2 -50
-19 -366 -109 -383 -109 -10 0 -78 40 -151 89 -204 135 -417 269 -489 309 -95
51 -100 55 -100 74 0 20 16 32 25 18 3 -5 1 -10 -4 -10 -6 0 -11 -5 -11 -11 0
-5 5 -7 10 -4 6 3 10 0 10 -7 0 -7 6 -2 13 12 11 22 19 25 59 23 25 0 74 -10
109 -21 35 -11 138 -41 229 -66 91 -26 226 -65 300 -87 111 -34 233 -68 408
-115 l22 -6 0 140 0 141 -52 15 c-29 8 -100 27 -158 41 -58 14 -211 55 -340
90 -129 34 -278 73 -330 85 -52 13 -101 24 -107 26 -25 6 -12 44 86 246 112
231 88 206 251 263 114 41 519 189 603 221 26 10 47 24 47 30 0 7 -75 -17
-179 -56 -98 -37 -277 -103 -397 -145 -121 -43 -225 -82 -232 -88 -9 -7 -97
32 -316 142 -167 83 -309 157 -315 165 -10 11 18 68 135 278 81 144 153 270
160 278 7 9 30 22 51 29 21 7 106 44 190 82 83 37 173 78 200 90 26 12 117 55
202 96 84 42 170 77 190 80 32 4 195 -34 241 -57 28 -13 70 -20 70 -12 0 12
-105 50 -213 77 l-88 21 112 150 c62 82 129 170 150 195 22 26 39 55 39 65 -1
24 3 28 -185 -222 l-144 -191 -98 -47 c-54 -27 -152 -73 -218 -103 -66 -30
-181 -84 -255 -119 -200 -94 -213 -97 -268 -78 -53 17 -389 109 -442 119 -51
11 -110 36 -110 47 0 5 13 28 29 51 16 23 65 96 108 161 43 66 87 133 98 148
14 21 83 62 235 140 118 60 241 125 273 144 32 19 61 34 64 34 5 0 91 50 165
96 35 22 45 23 320 27 220 3 299 8 356 22 39 9 72 21 72 26 0 11 -4 11 -55 -1
-77 -17 -131 -21 -364 -27 -153 -4 -232 -2 -230 4 10 27 351 296 359 283 3 -5
21 3 41 19 19 16 57 36 84 45 28 10 70 28 94 42 24 13 50 24 57 24 10 0 14 14
14 51 0 48 -1 50 -22 43 -13 -3 -35 -15 -49 -25 -37 -26 -125 -59 -189 -71
-30 -5 -61 -15 -68 -20 -13 -11 -46 -19 -162 -38 -35 -6 -69 -15 -75 -20 -12
-10 -85 -24 -85 -16 0 3 18 15 40 26 22 11 56 34 75 52 71 62 256 151 410 198
l120 36 3 372 c2 350 1 372 -15 371 -10 0 -52 -9 -93 -19z m-462 -863 c8 -9 8
-24 1 -51 -14 -51 -113 -123 -158 -114 -10 2 4 14 32 28 27 13 51 28 53 32 10
16 -17 7 -67 -22 -74 -44 -170 -87 -279 -124 -52 -19 -124 -46 -160 -61 -36
-15 -96 -35 -135 -45 -38 -11 -96 -27 -127 -36 -62 -19 -51 -21 -173 31 -26
11 -34 10 -50 -1 -18 -13 -18 -14 6 -12 24 2 89 -19 99 -32 3 -4 13 -11 23
-16 15 -9 8 -21 -63 -94 -44 -46 -80 -87 -80 -92 0 -15 -111 -128 -155 -157
-22 -14 -157 -77 -300 -139 -143 -62 -276 -120 -295 -129 -34 -15 -119 -43
-131 -43 -5 0 -135 93 -148 105 -7 8 267 308 295 323 11 5 39 13 64 17 25 4
57 13 71 21 14 7 78 31 141 53 113 38 205 80 181 81 -6 0 -31 -8 -55 -18 -24
-11 -99 -38 -168 -62 -69 -24 -127 -46 -130 -50 -3 -4 -23 -10 -45 -14 -72
-14 -102 -35 -173 -121 -55 -67 -191 -201 -215 -213 -35 -17 -466 -178 -626
-233 l-143 -50 -55 28 c-30 15 -68 39 -84 53 l-30 25 130 93 c71 52 142 108
158 125 l28 31 -30 -19 c-16 -10 -48 -33 -70 -50 -132 -105 -235 -165 -341
-201 -60 -20 -143 -50 -184 -66 -107 -43 -188 -68 -220 -68 -20 0 -44 18 -99
75 l-73 75 84 43 c45 24 99 53 118 64 19 11 78 45 132 76 53 31 116 65 140 76
23 10 90 40 148 67 58 26 143 60 190 76 47 16 125 43 175 60 105 35 168 66
234 114 27 18 55 34 63 34 8 0 18 4 24 9 8 7 59 31 209 97 29 12 98 27 180 39
22 3 48 8 58 11 10 3 23 1 30 -4 9 -7 34 -4 82 9 77 22 255 37 220 19 -18 -9
-18 -10 5 -6 14 3 44 8 67 12 24 3 41 9 39 13 -2 3 9 6 26 7 16 1 26 -2 21 -5
-5 -3 -12 -13 -15 -21 -5 -13 -83 -59 -105 -62 -30 -4 -182 -106 -183 -122 0
-5 7 -3 15 4 8 6 19 9 24 6 6 -4 32 9 59 29 27 19 56 35 63 35 8 0 37 17 64
38 106 80 145 102 221 123 44 12 122 34 174 49 136 39 200 50 200 34 0 -10 6
-11 26 -4 35 14 44 12 38 -4 -3 -8 -11 -13 -18 -10 -7 3 -12 -4 -12 -16 0 -27
7 -25 47 10 35 31 119 66 119 49 0 -12 67 -12 75 1 3 6 17 10 31 10 14 0 22
-4 19 -10 -3 -5 -15 -10 -25 -10 -10 0 -21 -4 -24 -9 -8 -12 24 -7 57 9 21 10
24 16 15 23 -9 6 -8 7 4 3 9 -3 50 6 90 18 40 13 100 29 133 36 82 17 200 51
320 94 117 41 110 40 123 23z m212 -186 c0 -16 -255 -243 -331 -294 -85 -57
-392 -227 -647 -358 l-143 -74 -87 32 c-48 17 -118 43 -155 57 -38 15 -67 22
-65 15 4 -12 44 -30 182 -80 48 -19 91 -39 93 -46 5 -12 -170 -290 -225 -358
-14 -16 -56 -47 -95 -68 -39 -20 -89 -48 -111 -61 -23 -13 -139 -74 -259 -135
-245 -127 -208 -119 -372 -73 -38 11 -104 27 -145 36 -41 10 -86 21 -100 26
-14 4 -33 11 -43 14 -14 4 -2 25 71 118 48 62 116 152 150 200 61 84 113 138
134 138 16 0 200 79 549 234 69 31 130 56 134 56 10 0 126 119 197 201 122
141 125 144 238 178 58 18 117 35 133 38 15 3 27 9 27 14 0 5 5 9 11 9 5 0 8
-4 5 -9 -12 -19 153 37 291 100 24 10 48 19 54 19 6 0 25 6 42 14 41 18 83 28
127 31 36 3 240 41 245 47 2 2 24 2 49 0 35 -3 46 -8 46 -21z m-2507 -188 c-7
-2 -13 -9 -13 -14 0 -6 6 -7 13 -4 6 4 3 -1 -8 -10 -11 -9 -105 -59 -210 -112
-104 -52 -194 -98 -200 -103 -13 -10 -132 -53 -264 -96 -57 -18 -112 -40 -121
-49 -10 -9 -52 -29 -95 -46 -115 -44 -211 -92 -332 -166 -59 -36 -124 -74
-143 -85 -120 -68 -140 -80 -140 -88 0 -5 10 -15 23 -22 12 -7 49 -41 81 -75
l58 -62 -83 -88 c-272 -289 -295 -309 -409 -355 -182 -75 -236 -92 -290 -92
-68 0 -165 21 -184 40 -8 8 -17 10 -21 5 -3 -6 -35 -1 -78 11 -39 11 -101 28
-137 38 l-65 17 47 21 c26 12 56 22 67 22 29 0 69 19 136 68 33 23 93 66 134
95 41 29 112 82 159 119 47 38 95 75 106 83 l21 16 -21 -6 c-14 -4 -24 0 -28
10 -9 24 -22 17 -21 -12 0 -23 -15 -38 -87 -93 -225 -169 -401 -280 -447 -280
-9 0 -31 -9 -49 -20 -31 -19 -35 -20 -87 -5 -30 9 -64 17 -77 18 -25 3 -220
49 -227 54 -3 2 22 27 55 56 32 28 83 76 112 105 38 37 67 55 98 63 24 6 42
14 40 18 -3 4 34 18 80 31 47 13 87 27 90 32 3 5 10 6 15 3 5 -3 41 6 80 20
74 27 111 44 94 45 -13 0 -165 -48 -186 -59 -8 -5 -42 -14 -75 -21 -32 -6 -90
-27 -129 -45 -89 -42 -109 -46 -135 -28 -12 8 -24 12 -27 9 -3 -3 6 -11 21
-17 14 -7 26 -15 26 -18 0 -4 -45 -48 -100 -99 l-100 -93 -52 15 c-87 26 -165
44 -323 76 -82 17 -158 33 -167 36 -25 7 -22 21 4 27 12 4 20 9 16 12 -3 3
-16 2 -29 -3 -16 -6 -41 -5 -74 5 -27 8 -124 31 -215 52 -91 21 -183 44 -205
51 l-40 13 49 13 c28 7 53 11 58 8 5 -3 30 1 56 10 26 8 70 16 97 17 28 1 57
6 66 10 9 5 36 11 60 13 148 16 274 38 281 49 6 9 10 9 16 0 9 -14 107 10 187
46 27 12 70 25 95 28 38 5 197 73 280 120 84 48 199 96 233 98 21 1 42 7 46
13 8 14 216 71 301 83 36 5 71 11 78 14 6 2 12 0 12 -5 0 -6 -6 -10 -14 -10
-8 0 -18 -5 -22 -12 -5 -7 -2 -9 7 -4 8 4 3 -1 -11 -13 -14 -11 -44 -29 -67
-41 -24 -12 -45 -25 -48 -31 -4 -5 -26 -14 -50 -20 -25 -6 -43 -14 -40 -18 6
-11 -98 -62 -285 -138 -47 -19 -92 -40 -100 -47 -23 -21 -64 -40 -56 -27 12
18 -12 12 -26 -6 -7 -10 -18 -19 -24 -20 -7 -1 -52 -23 -100 -49 -149 -77 18
-17 197 71 58 29 117 56 130 60 13 4 51 20 84 35 33 16 96 40 140 54 99 33
314 113 336 125 9 5 36 15 60 21 24 7 46 16 49 20 8 11 148 65 208 80 41 9 56
10 67 0 20 -16 19 -49 -1 -57 -11 -4 -12 -8 -4 -13 11 -7 4 -14 -72 -75 -9 -7
-19 -12 -22 -9 -3 2 -2 -1 3 -8 13 -15 124 69 117 88 -3 8 2 18 11 23 14 7 15
12 5 24 -7 8 -9 22 -6 32 6 14 14 15 43 9 20 -4 48 -8 64 -8 36 -1 35 -13 -3
-21 -16 -4 -33 -11 -36 -17 -8 -13 25 -7 106 17 30 9 78 23 105 30 177 46 308
84 515 151 129 41 264 85 300 96 36 11 88 31 115 44 56 25 144 50 315 89 63
15 131 30 150 35 39 9 82 11 63 3z m-1023 -153 c-14 -4 -19 -8 -12 -9 9 -1 7
-7 -6 -21 -28 -30 -177 -89 -252 -100 -36 -5 -95 -16 -131 -23 -43 -9 -75 -10
-90 -4 -21 7 -7 14 94 47 65 22 125 36 133 33 8 -3 22 1 32 9 9 8 42 20 72 27
30 8 60 16 65 20 18 11 80 29 100 29 16 0 15 -2 -5 -8z m-1203 -385 c-4 -8
-11 -15 -17 -15 -6 0 -6 7 2 20 14 22 24 19 15 -5z m2461 -119 c33 -24 62 -49
66 -54 5 -8 -63 -102 -245 -338 -51 -65 -95 -112 -126 -132 -83 -51 -545 -282
-567 -282 -26 0 -233 68 -329 108 -37 15 -37 15 -19 36 10 12 50 62 87 111 38
50 74 93 81 98 7 4 54 56 105 115 l92 107 146 51 c80 28 175 62 211 76 151 58
347 131 370 138 47 15 68 10 128 -34z m-2678 9 c-33 -19 -46 -19 -30 0 7 8 22
15 34 15 20 -1 20 -2 -4 -15z m1706 -170 c40 -25 78 -45 84 -45 5 0 10 -2 10
-4 0 -12 -110 -149 -169 -211 -37 -38 -95 -106 -128 -150 -34 -44 -71 -90 -82
-103 -25 -26 -137 -84 -228 -118 -34 -13 -110 -47 -167 -75 l-106 -51 -59 52
c-59 51 -138 138 -143 158 -2 9 305 338 373 399 8 8 71 34 140 58 68 23 180
63 249 88 69 25 131 45 138 46 7 1 47 -19 88 -44z m-3769 -111 c-3 -3 -12 -4
-19 -1 -8 3 -5 6 6 6 11 1 17 -2 13 -5z m5693 -60 c36 -9 72 -17 81 -19 83
-17 422 -115 432 -125 4 -4 -45 -99 -109 -211 -64 -112 -129 -230 -145 -261
-16 -31 -44 -69 -63 -84 -19 -15 -201 -112 -405 -215 l-370 -187 -103 38
c-136 49 -311 120 -322 131 -6 5 -20 9 -33 9 -13 0 -23 5 -23 11 0 13 168 324
262 486 l59 101 202 102 c111 57 207 106 212 110 14 11 248 130 255 130 3 0
34 -7 70 -16z m-6463 -44 c26 -5 102 -19 168 -30 203 -35 279 -52 295 -66 12
-12 10 -18 -19 -48 -41 -42 -138 -79 -261 -100 -47 -8 -132 -24 -189 -35 -92
-18 -106 -19 -124 -6 -25 18 -46 20 -30 4 19 -19 6 -33 -100 -121 -150 -123
-171 -137 -242 -163 l-65 -23 0 24 c0 50 46 333 60 370 5 13 17 24 27 24 10 1
32 12 48 26 17 15 23 24 15 21 -48 -16 -52 -17 -27 -2 15 9 36 13 47 10 10 -3
21 -1 25 5 8 12 55 13 55 1 0 -5 -6 -12 -12 -14 -7 -3 1 -3 18 0 29 5 34 0 78
-61 26 -36 49 -66 52 -66 8 0 -16 41 -53 93 -31 41 -33 50 -22 65 24 30 42 42
104 72 67 32 82 34 152 20z m507 -112 c-5 -8 -2 -9 9 -5 33 13 16 -10 -20 -28
-21 -10 -32 -20 -25 -22 6 -3 34 9 62 26 73 45 123 43 316 -13 66 -19 137 -37
159 -41 94 -15 218 -48 270 -71 29 -13 29 -14 8 -20 -25 -7 -31 -24 -9 -24 8
0 21 9 29 21 11 14 16 17 19 7 4 -10 9 -8 23 5 10 10 21 15 24 10 3 -4 13 -9
21 -9 23 -2 703 -174 708 -179 14 -14 -31 -38 -117 -64 -270 -81 -385 -105
-420 -87 -11 6 -51 58 -90 116 -76 115 -121 170 -139 170 -7 0 -12 5 -12 11 0
5 -5 7 -11 4 -6 -4 4 -20 25 -38 34 -32 158 -203 189 -262 15 -30 15 -31 -30
-85 -201 -245 -258 -310 -282 -319 -87 -34 -560 -102 -589 -85 -9 6 -65 89
-123 185 -76 124 -104 179 -98 190 20 40 232 269 249 269 113 0 445 55 575 95
75 24 77 25 30 20 -27 -2 -79 -11 -115 -20 -95 -23 -333 -62 -421 -70 -90 -8
-82 -13 -180 125 -90 127 -94 135 -67 160 12 11 18 20 12 20 -5 0 -2 5 6 10
20 13 23 12 14 -2z m4876 -82 c275 -71 300 -79 300 -97 0 -6 -31 -67 -70 -135
-38 -68 -70 -126 -70 -128 0 -2 -16 -33 -36 -68 -20 -34 -54 -97 -76 -138 -51
-96 -76 -121 -152 -158 l-61 -30 -75 20 c-41 10 -124 32 -185 48 -60 17 -185
49 -277 72 -93 24 -168 46 -168 50 0 4 33 74 74 155 l74 149 129 66 c330 171
449 228 468 224 11 -2 67 -16 125 -30z m-4858 -116 c41 -58 77 -111 82 -117 7
-12 -201 -261 -243 -290 -9 -7 -84 -26 -167 -42 -240 -46 -415 -64 -444 -45
-21 13 -59 66 -117 165 l-51 86 110 89 c200 162 163 144 399 184 149 25 227
43 294 69 28 11 53 16 56 13 4 -4 40 -54 81 -112z m3036 -69 c22 -26 68 -75
102 -107 34 -32 66 -68 72 -78 10 -18 7 -19 -35 -13 -38 5 -328 73 -461 108
-21 6 -35 14 -30 18 5 4 68 29 139 55 72 27 137 52 145 57 23 13 24 12 68 -40z
m876 -10 c92 -33 173 -64 180 -71 8 -8 -8 -48 -63 -156 -40 -79 -78 -144 -83
-144 -6 0 -27 4 -47 10 -20 5 -94 23 -166 40 -428 101 -475 115 -475 140 0 23
36 43 236 128 76 33 159 71 184 85 25 14 50 25 55 26 6 0 86 -26 179 -58z
m-2029 -125 c83 -20 179 -45 215 -55 36 -11 85 -23 110 -27 25 -3 50 -10 55
-14 6 -4 19 -9 30 -12 18 -3 -44 -27 -284 -109 -46 -16 -91 -29 -99 -29 -15 0
-89 73 -159 158 -19 23 -40 42 -45 42 -11 0 32 -56 114 -149 48 -54 55 -67 48
-87 -11 -29 -226 -363 -248 -386 -10 -9 -71 -33 -137 -53 -136 -41 -491 -135
-509 -135 -12 0 -57 66 -152 220 -32 52 -64 102 -71 111 -21 25 -16 36 40 97
28 32 77 90 107 128 30 38 80 95 111 127 47 48 61 57 90 57 60 0 406 98 472
133 72 39 78 39 312 -17z m-2820 -68 c8 -25 57 -111 113 -196 l34 -52 -43 -48
c-76 -83 -343 -332 -356 -332 -16 0 -17 -7 7 195 11 94 20 190 20 215 0 25 7
56 15 70 l14 25 1 -23 c0 -44 19 -12 26 46 8 66 25 87 87 107 61 19 75 18 82
-7z m-612 -24 c-6 -51 -37 -281 -63 -474 -62 -459 -99 -737 -106 -792 -9 -78
-28 -83 -58 -15 -13 28 -47 123 -75 209 l-52 157 28 32 c15 18 64 70 108 117
76 81 132 152 120 152 -4 0 -13 -7 -21 -15 -9 -8 -19 -15 -23 -15 -12 0 -181
288 -181 309 0 28 111 165 230 283 75 75 97 87 93 52z m4095 -74 c204 -50 254
-61 407 -95 119 -27 175 -43 175 -52 0 -34 -310 -479 -354 -508 -58 -38 -340
-148 -656 -256 l-115 -40 -28 33 c-16 18 -77 92 -135 163 -58 72 -125 152
-149 179 -24 26 -43 53 -43 60 0 6 41 74 91 151 50 77 105 163 121 192 27 48
34 54 101 78 90 34 179 66 282 104 44 16 93 30 108 30 15 1 103 -17 195 -39z
m3920 -180 l322 -161 -19 -37 c-10 -20 -55 -112 -100 -204 -93 -192 -83 -185
-202 -149 -113 34 -537 148 -784 211 -303 76 -307 78 -303 108 3 20 55 50 368
207 201 101 372 184 380 184 8 1 160 -71 338 -159z m-6584 67 c17 -28 67 -114
112 -189 l82 -138 -76 -83 c-43 -46 -113 -123 -156 -171 -43 -48 -91 -92 -105
-98 -90 -34 -567 -117 -582 -101 -13 15 -249 395 -249 401 1 4 74 81 164 171
l162 163 90 9 c169 16 498 70 513 84 10 11 17 3 45 -48z m3466 -77 c58 -16
123 -32 145 -36 35 -6 320 -78 352 -89 15 -5 -45 -128 -84 -171 -66 -73 -410
-359 -493 -409 l-64 -39 -55 31 c-53 28 -279 169 -329 205 l-24 16 79 109 c43
59 126 179 183 266 l105 158 40 -6 c22 -4 87 -20 145 -35z m1687 -85 c137 -58
166 -69 231 -91 53 -18 64 -30 36 -41 -17 -6 -183 31 -369 82 -66 19 -132 36
-147 39 -40 9 -35 22 19 49 57 29 77 26 230 -38z m-992 -76 c33 -11 132 -37
220 -58 108 -25 160 -42 160 -51 0 -17 -64 -55 -167 -100 l-78 -33 -62 25
c-99 41 -257 114 -272 127 -11 9 -12 19 -5 41 12 34 34 54 74 68 32 11 39 10
130 -19z m-3224 -154 c40 -66 84 -135 96 -154 13 -19 23 -40 23 -47 0 -7 -36
-57 -81 -111 -44 -54 -107 -134 -141 -178 -55 -74 -65 -81 -117 -98 -71 -22
-250 -55 -366 -67 -49 -5 -115 -12 -146 -16 l-56 -6 -40 73 c-95 174 -137 246
-164 283 -24 33 -26 42 -16 55 6 9 57 68 113 131 135 154 186 200 222 200 35
0 279 34 392 55 176 33 174 33 191 16 9 -9 49 -70 90 -136z m3051 26 c40 -17
110 -49 236 -108 32 -15 52 -31 52 -41 0 -16 -52 -116 -256 -494 -95 -174 -79
-158 -309 -318 -369 -258 -458 -313 -483 -305 -7 3 -59 35 -115 72 -56 38
-114 74 -129 82 -15 8 -24 19 -21 25 4 6 39 58 78 116 63 92 189 313 250 437
15 31 41 55 99 95 44 29 89 60 101 68 49 34 435 372 435 381 0 13 13 11 62
-10z m795 -26 c215 -55 507 -138 516 -146 7 -6 -58 -178 -143 -376 -20 -46
-29 -53 -220 -161 -135 -76 -543 -282 -560 -282 -33 0 -410 174 -410 189 0 6
15 39 34 73 19 35 81 151 139 258 58 107 117 220 131 250 15 30 32 62 39 71
19 25 286 157 319 158 9 1 79 -15 155 -34z m623 16 c-5 -11 -15 -23 -21 -27
-6 -3 -3 5 6 20 20 30 30 35 15 7z m-6320 -142 c41 -67 94 -151 117 -187 23
-37 42 -71 43 -77 0 -14 -245 -261 -280 -282 -28 -16 -42 -46 -19 -40 13 3 34
-36 100 -183 83 -185 92 -211 81 -235 -14 -30 -295 -265 -333 -278 -42 -14
-42 0 -9 289 43 389 49 422 71 409 5 -4 9 -1 9 4 0 6 -7 11 -15 11 -12 0 -15
8 -10 33 3 17 12 100 20 182 32 316 36 347 45 371 6 14 8 30 5 35 -5 8 80 70
94 69 4 0 40 -55 81 -121z m2766 -30 c54 -67 134 -163 177 -214 58 -70 76 -97
70 -111 -5 -15 -170 -291 -233 -391 -22 -34 -86 -56 -195 -68 -16 -2 -122 -13
-235 -24 -113 -11 -230 -23 -260 -27 l-55 -6 -71 98 c-39 55 -99 140 -133 189
-34 50 -71 102 -83 117 -18 23 -20 32 -11 51 21 46 261 324 290 335 15 7 100
30 188 52 140 35 309 83 385 109 56 20 63 15 166 -110z m3554 -20 c36 -11 83
-22 105 -24 49 -4 37 -1 270 -68 382 -109 636 -178 695 -189 41 -8 65 -18 71
-30 6 -12 6 -18 -1 -18 -5 0 -10 -11 -10 -23 0 -13 -8 -31 -17 -39 -10 -8
-101 -48 -203 -87 -102 -39 -194 -76 -205 -82 -11 -5 -74 -27 -140 -48 -66
-22 -153 -51 -193 -66 l-73 -28 -52 28 c-105 56 -235 135 -358 217 l-125 84
19 49 c59 148 144 345 150 345 1 0 31 -9 67 -21z m-2474 -37 c21 -16 75 -50
119 -77 44 -26 117 -72 162 -101 l83 -53 -19 -43 c-54 -126 -262 -474 -334
-560 -19 -23 -118 -78 -347 -193 -203 -103 -312 -144 -344 -132 -12 5 -130
139 -348 398 l-47 55 33 50 c46 68 186 298 220 360 23 43 34 53 69 63 104 31
421 143 512 182 11 4 56 24 100 43 44 19 85 35 91 35 6 1 29 -12 50 -27z
m-2951 -207 c88 -151 129 -229 132 -248 4 -25 -1 -31 -168 -194 l-145 -143
-199 -35 c-110 -19 -225 -40 -255 -47 -30 -6 -76 -13 -102 -14 -26 -2 -50 -4
-55 -5 -18 -3 -33 2 -33 11 0 5 -31 76 -68 157 -38 82 -77 169 -86 195 l-18
46 142 140 143 139 126 18 c159 21 426 73 466 90 40 16 53 5 120 -110z m835
-187 c12 -13 33 -41 48 -63 15 -22 73 -106 130 -188 57 -81 102 -151 100 -156
-2 -5 -46 -60 -98 -122 -52 -62 -118 -140 -145 -173 -28 -34 -66 -69 -85 -78
-23 -11 -94 -22 -200 -32 -254 -24 -479 -39 -494 -33 -13 5 -226 428 -226 449
0 6 67 78 149 160 146 145 150 148 192 148 97 0 500 68 561 95 43 19 44 19 68
-7z m4412 -9 c29 -17 71 -43 93 -58 60 -41 242 -151 250 -151 13 0 95 -61 95
-71 0 -11 -268 -550 -326 -655 -21 -38 -47 -76 -58 -86 -12 -9 -120 -60 -241
-113 -121 -54 -258 -115 -305 -136 -103 -46 -245 -99 -267 -99 -9 0 -48 20
-87 46 -81 52 -224 136 -310 183 -105 57 -108 30 27 261 66 113 151 259 188
325 111 197 89 177 330 297 118 58 286 147 374 196 88 50 165 91 172 91 7 1
36 -13 65 -30z m1376 10 c53 -24 237 -139 480 -297 109 -72 164 -114 168 -129
7 -26 3 -37 -61 -188 -63 -148 -105 -252 -171 -425 -60 -155 -80 -185 -126
-196 -17 -3 -71 -19 -122 -36 -103 -34 -163 -51 -501 -148 -132 -38 -268 -72
-302 -75 l-62 -6 -113 85 c-466 349 -468 350 -468 376 0 10 33 83 74 162 41
78 123 241 183 361 l108 217 50 19 c28 10 120 42 205 71 147 49 530 197 567
219 26 15 39 13 91 -10z m-8213 -168 c-6 -11 -27 -147 -50 -326 -21 -164 -54
-365 -65 -391 -10 -26 -131 -186 -173 -231 -17 -18 -36 -33 -41 -33 -6 0 -47
-11 -91 -24 -287 -86 -288 -86 -310 -72 -11 8 -49 67 -84 132 l-64 119 64 120
c35 66 84 161 109 212 l45 92 50 12 c82 19 273 83 332 111 13 6 25 9 27 7 3
-2 30 -88 62 -189 32 -102 61 -189 66 -194 13 -16 9 35 -7 79 -7 22 -33 100
-55 173 l-42 132 21 35 c20 35 198 245 207 245 3 0 3 -4 -1 -9z m5855 -162
c118 -45 116 -42 79 -119 -27 -57 -84 -159 -169 -300 -15 -25 -68 -115 -119
-201 -101 -173 -91 -163 -311 -304 -143 -91 -414 -257 -458 -279 l-32 -17
-141 81 c-78 44 -144 80 -149 80 -4 0 -13 6 -19 14 -9 11 17 71 126 293 76
153 153 310 170 350 l32 71 158 105 c87 58 210 142 273 186 63 44 148 102 187
129 l73 50 112 -55 c61 -30 146 -67 188 -84z m-6670 10 c0 -5 31 -61 69 -124
l70 -115 -66 -127 c-149 -292 -141 -280 -208 -312 -33 -16 -134 -59 -225 -96
-91 -37 -169 -71 -174 -76 -15 -13 -26 -11 -26 5 0 8 -4 16 -8 18 -4 2 -31 42
-60 90 l-52 88 24 48 c13 26 46 81 73 122 47 72 124 221 138 267 8 30 50 58
129 88 36 14 74 29 83 34 10 5 37 17 61 25 24 9 67 30 95 46 55 31 77 37 77
19z m4365 -120 c119 -145 168 -203 238 -282 l59 -66 -63 -73 c-177 -207 -344
-387 -363 -392 -36 -11 -484 -45 -614 -47 -67 -1 -126 2 -131 7 -5 5 -65 120
-133 256 l-125 247 64 78 c140 171 256 303 265 303 6 0 402 39 510 50 58 6
119 15 135 20 57 17 65 12 158 -101z m-2004 -202 c54 -109 99 -204 99 -212 0
-7 -79 -89 -176 -182 -126 -121 -185 -170 -207 -175 -54 -11 -376 -37 -500
-40 l-118 -3 -26 60 c-14 33 -56 130 -94 216 -38 86 -69 159 -69 163 0 4 17
21 37 39 21 18 92 80 159 139 102 90 129 109 166 115 23 4 46 6 51 5 4 -1 92
13 195 32 103 19 219 39 257 46 39 6 77 15 85 20 21 13 28 3 141 -223z m3160
70 c115 -73 128 -85 123 -106 -7 -35 -323 -681 -345 -708 -13 -14 -112 -64
-399 -198 -140 -66 -242 -105 -271 -105 -10 0 -51 43 -95 98 -42 53 -103 129
-133 167 -31 39 -72 91 -91 118 l-34 47 26 28 c13 15 82 92 152 172 202 229
242 270 265 270 32 0 104 33 386 177 143 73 266 130 273 128 8 -3 72 -42 143
-88z m-2179 -482 c60 -121 114 -225 120 -232 17 -21 -1 -46 -74 -108 -39 -33
-120 -104 -180 -158 -60 -54 -121 -102 -135 -108 -27 -10 -407 -29 -599 -29
l-121 0 -31 68 c-17 37 -43 94 -58 127 -15 33 -49 107 -75 164 -27 57 -49 109
-49 116 0 7 62 71 138 142 204 193 207 195 255 199 23 3 173 16 334 29 160 14
302 29 315 34 17 7 26 5 36 -7 8 -10 63 -116 124 -237z m-2021 70 c79 -179
119 -281 119 -301 0 -13 -340 -336 -361 -343 -7 -2 -9 4 -5 15 5 17 28 211 42
359 13 134 36 302 45 332 6 18 18 37 27 42 9 5 14 13 10 17 -4 4 -15 1 -23 -6
-14 -12 -15 -10 -10 12 5 20 3 27 -12 30 -10 3 8 4 40 4 l58 -1 70 -160z
m-662 -230 c-21 -154 -38 -294 -39 -312 0 -48 -17 -49 -28 -1 -6 24 -18 68
-26 98 -9 30 -25 99 -36 152 l-20 98 93 124 c50 68 93 123 93 122 1 0 -16
-127 -37 -281z m-1305 148 c26 -43 49 -89 53 -103 9 -34 -15 -96 -120 -314
l-92 -189 -61 -27 c-33 -15 -103 -45 -155 -65 -52 -21 -104 -44 -116 -52 -12
-8 -40 -16 -64 -18 -23 -2 -46 -8 -52 -14 -7 -7 -16 1 -27 22 -9 18 -33 63
-53 101 -21 38 -41 74 -46 80 -6 7 4 38 27 86 21 41 50 104 66 140 106 241
115 255 164 279 59 29 393 148 419 150 6 1 32 -34 57 -76z m-632 50 c30 -36
78 -124 78 -144 0 -11 -28 -80 -61 -152 -34 -73 -79 -170 -100 -215 -44 -95
-64 -114 -169 -160 -41 -18 -88 -39 -105 -46 -16 -8 -64 -28 -105 -46 -41 -18
-80 -37 -87 -42 -8 -6 -22 11 -49 59 -21 37 -46 80 -56 94 l-18 27 116 236
c69 143 122 239 132 242 49 16 256 100 317 129 83 39 87 40 107 18z m1273
-128 c54 -98 65 -125 61 -150 -4 -16 -52 -124 -109 -239 l-102 -208 -115 -58
c-122 -61 -339 -155 -344 -149 -13 15 -100 166 -127 221 l-32 66 76 159 c42
87 89 190 106 228 l29 70 84 37 c234 104 393 166 399 155 4 -7 37 -66 74 -132z
m7788 32 c135 -97 503 -380 514 -393 9 -12 6 -28 -14 -72 -14 -31 -56 -127
-93 -212 -185 -420 -228 -515 -246 -532 -10 -11 -82 -40 -159 -64 -77 -25
-187 -60 -245 -79 -335 -106 -523 -158 -546 -149 -25 9 -205 145 -402 302 -63
50 -119 92 -122 92 -4 0 -12 10 -19 23 -17 32 -7 52 159 327 32 52 67 111 78
130 74 130 173 298 185 315 8 12 46 30 88 44 69 22 286 113 439 183 36 17 79
36 95 44 70 32 201 83 215 84 8 0 41 -19 73 -43z m-1298 -53 c12 -3 197 -112
302 -179 64 -41 71 -48 64 -68 -5 -12 -73 -130 -151 -262 -150 -251 -226 -380
-268 -453 -22 -38 -37 -50 -118 -88 -52 -24 -96 -44 -99 -44 -3 0 -42 -18 -88
-41 -45 -23 -120 -58 -167 -79 -47 -21 -123 -56 -170 -78 -154 -71 -173 -76
-209 -57 -34 17 -248 194 -294 242 l-28 30 99 164 c55 90 139 232 187 314 49
83 97 160 108 173 12 12 52 40 91 62 107 61 342 208 545 341 l104 68 41 -21
c22 -12 46 -23 51 -24z m-8883 -33 c28 -37 36 -56 32 -78 -5 -31 -149 -321
-195 -395 -35 -54 -71 -75 -264 -154 l-130 -53 -22 27 c-12 15 -30 41 -40 59
-17 31 -16 33 4 70 92 166 189 354 195 380 4 16 27 31 77 54 40 18 120 56 179
85 59 29 112 53 117 53 6 1 27 -21 47 -48z m2887 7 c5 -13 17 -61 27 -108 9
-47 31 -144 49 -215 28 -113 31 -139 24 -192 -13 -91 -56 -424 -80 -613 -12
-91 -24 -171 -28 -177 -4 -7 -19 47 -34 120 -15 72 -38 176 -51 230 -13 53
-20 97 -15 97 5 0 9 4 9 10 0 8 148 257 170 285 4 6 11 21 15 35 6 22 6 23 -8
10 -27 -26 -207 -332 -207 -352 0 -10 18 -98 39 -196 62 -284 62 -282 41 -317
-34 -56 -158 -280 -194 -351 -20 -40 -44 -74 -54 -78 -9 -3 -51 -17 -92 -31
-84 -28 -113 -31 -127 -12 -5 6 -42 113 -82 236 l-73 223 62 132 c35 72 82
173 106 224 23 52 44 96 47 98 2 2 31 11 63 19 71 19 146 46 140 52 -2 2 -42
-7 -88 -21 -46 -14 -92 -26 -102 -26 -12 0 -29 26 -57 88 -22 48 -59 126 -84
174 l-45 88 99 202 c55 112 106 219 113 238 14 33 20 37 124 69 60 18 121 35
136 38 16 2 52 13 80 23 68 24 67 24 77 -2z m1645 -70 c8 -18 40 -89 71 -158
31 -69 72 -160 91 -203 l34 -79 -182 -179 c-111 -108 -195 -182 -213 -188 -16
-5 -171 -12 -343 -14 l-312 -5 -15 28 c-8 15 -31 72 -51 126 -19 55 -41 113
-48 129 -38 89 -57 155 -49 168 9 16 349 339 366 348 7 4 120 15 252 24 132 9
263 20 290 25 88 14 94 13 109 -22z m2149 -42 c12 -17 49 -65 82 -106 33 -41
90 -113 125 -160 35 -47 74 -97 87 -111 l23 -25 -153 -160 c-85 -87 -194 -195
-242 -239 l-88 -80 -76 -7 c-42 -3 -204 -12 -360 -18 l-285 -12 -19 23 c-21
26 -113 207 -208 406 l-58 123 185 166 c114 103 196 169 216 175 18 5 77 9
132 9 104 0 482 27 551 39 61 11 64 10 88 -23z m1286 -215 c65 -38 68 -48 33
-106 -16 -28 -102 -171 -191 -320 -88 -148 -167 -278 -174 -287 -11 -14 -175
-98 -191 -98 -2 0 -85 -39 -183 -86 -284 -137 -356 -171 -381 -179 -20 -6 -32
1 -70 42 -36 37 -205 252 -266 337 -6 8 66 87 237 257 230 229 250 246 304
264 115 37 607 266 637 295 9 9 114 -43 245 -119z m-7479 -227 c0 -3 9 -19 21
-35 11 -16 21 -42 21 -58 1 -18 -43 -114 -118 -261 -113 -220 -121 -233 -159
-251 -65 -30 -377 -159 -386 -159 -4 0 -30 38 -57 85 l-49 86 71 137 c40 75
94 180 120 233 l48 96 177 83 c97 46 194 95 216 110 l40 27 28 -44 c15 -23 27
-46 27 -49z m522 79 c8 -10 37 -61 64 -114 l48 -97 -36 -83 c-44 -101 -111
-261 -145 -345 -13 -34 -34 -70 -46 -81 -25 -22 -89 -50 -222 -99 -49 -18
-118 -44 -153 -58 l-63 -25 -35 47 c-20 26 -53 76 -74 112 l-38 65 128 248
c146 285 107 246 353 352 76 33 146 68 155 77 22 22 45 22 64 1z m2529 -133
c28 -74 58 -157 68 -185 10 -27 25 -66 34 -85 l15 -36 -44 -53 c-83 -100 -244
-264 -244 -248 0 8 9 80 20 159 10 78 31 238 44 354 27 219 33 251 47 237 5
-5 32 -69 60 -143z m-1853 -25 l74 -134 -17 -48 c-9 -26 -60 -140 -113 -253
l-97 -205 -164 -67 c-90 -37 -168 -65 -173 -62 -4 3 -33 -9 -62 -26 l-55 -31
-24 43 c-13 24 -41 75 -62 113 -21 39 -44 77 -52 86 -12 15 -9 29 26 113 23
53 59 138 80 189 64 150 102 232 115 239 6 4 19 8 30 8 10 0 44 11 75 24 31
14 110 48 176 76 66 28 127 55 135 60 8 5 20 9 25 9 6 1 43 -60 83 -134z
m3932 -118 c124 -252 144 -297 132 -297 -4 0 -66 -47 -137 -105 -72 -58 -174
-141 -227 -184 l-97 -79 -83 -6 c-46 -4 -206 -8 -356 -9 l-274 -2 -67 170
c-37 94 -85 214 -106 269 l-38 99 189 183 c221 214 158 191 539 200 143 3 262
8 264 10 2 2 34 4 70 4 l66 0 125 -253z m-3344 105 c56 -100 124 -261 124
-290 -1 -34 -190 -432 -210 -442 -112 -55 -427 -180 -452 -180 -14 0 -35 34
-80 125 -34 69 -69 133 -78 143 -21 23 -29 3 143 371 l62 132 120 53 c66 29
158 71 205 93 89 43 108 51 125 52 6 0 24 -25 41 -57z m2073 -275 c6 -8 40
-90 76 -183 36 -93 80 -204 97 -247 21 -55 28 -84 22 -97 -5 -10 -105 -104
-223 -210 l-214 -193 -309 6 c-190 3 -314 9 -320 15 -6 6 -39 100 -74 209
l-63 199 11 75 c12 85 5 74 205 283 111 116 139 140 170 146 21 4 167 8 324 9
227 1 289 -2 298 -12z m4644 -225 c38 -30 117 -90 175 -135 59 -44 127 -96
152 -116 25 -19 47 -37 50 -39 2 -1 -2 -13 -10 -25 -8 -12 -52 -96 -98 -187
-236 -463 -305 -596 -316 -607 -17 -18 -914 -283 -958 -283 -6 0 -421 448
-430 464 -4 7 3 27 17 47 39 57 145 223 274 431 68 108 131 205 141 216 10 11
54 33 97 50 43 17 143 61 223 97 279 129 455 208 480 215 26 7 50 -8 203 -128z
m-2444 81 c16 -21 71 -92 122 -158 50 -66 107 -137 127 -157 l35 -37 -26 -33
c-32 -42 -248 -281 -338 -375 -84 -86 -90 -88 -344 -102 -380 -22 -549 -25
-561 -10 -17 23 -234 496 -234 511 1 12 283 251 399 338 l55 40 115 1 c64 1
168 5 231 9 63 3 176 7 252 8 l136 2 31 -37z m1218 -114 c65 -56 137 -115 160
-132 24 -17 43 -36 43 -42 0 -13 -51 -98 -180 -300 -46 -71 -116 -182 -157
-246 -40 -64 -84 -126 -96 -138 -14 -12 -110 -50 -228 -90 -112 -38 -253 -87
-314 -109 -60 -21 -147 -49 -192 -62 -82 -23 -83 -23 -104 -4 -12 10 -82 99
-156 198 l-134 178 23 28 c42 51 311 344 378 410 44 45 81 72 115 84 28 11
124 55 214 98 90 43 230 108 310 145 80 36 150 70 156 75 22 19 51 2 162 -93z
m-7978 -55 c27 -48 43 -87 43 -108 0 -23 -34 -100 -106 -242 -58 -115 -115
-224 -126 -242 -24 -39 -78 -65 -293 -141 l-147 -53 -20 24 c-21 24 -90 132
-90 140 0 3 39 74 86 159 47 85 110 201 139 259 57 113 58 114 165 154 78 30
238 98 265 114 11 6 25 11 30 11 6 0 30 -33 54 -75z m552 -5 c19 -35 48 -82
63 -104 21 -31 27 -48 23 -75 -2 -19 -52 -134 -110 -255 -166 -343 -140 -306
-227 -337 -108 -38 -311 -99 -339 -101 -20 -2 -30 12 -75 98 -29 55 -58 109
-65 120 -11 18 -5 33 45 125 31 58 92 177 135 265 l79 160 112 47 c62 26 156
65 208 87 52 23 100 39 105 38 6 -2 26 -32 46 -68z m10089 -10 c52 -41 142
-112 200 -157 270 -210 330 -258 402 -315 42 -34 80 -69 82 -77 5 -14 -36
-126 -149 -400 -26 -63 -78 -194 -117 -290 -38 -96 -80 -202 -94 -236 l-26
-61 -121 -26 c-67 -14 -230 -46 -362 -72 -132 -25 -296 -56 -365 -69 -69 -14
-147 -27 -173 -29 -46 -4 -50 -3 -85 36 -50 56 -165 181 -172 187 -3 3 -112
114 -244 247 l-238 241 40 79 c21 43 68 134 104 203 36 69 109 211 163 315 54
105 102 196 108 202 5 7 41 22 81 33 159 47 224 66 525 161 173 54 316 100
318 103 11 10 35 -4 123 -75z m-11180 3 c22 -38 40 -79 40 -92 0 -23 -76 -175
-193 -383 -59 -106 -87 -137 -137 -152 -25 -7 -247 -103 -304 -131 -16 -8 -32
-14 -37 -14 -4 0 -26 35 -49 77 -36 68 -40 81 -29 98 50 80 225 387 247 433
15 31 32 60 37 64 6 4 62 28 125 53 63 25 144 61 180 80 36 18 68 34 72 34 4
1 25 -30 48 -67z m1681 16 c10 -13 18 -26 19 -29 0 -3 25 -52 55 -108 30 -57
55 -107 55 -112 0 -5 -24 -62 -53 -127 -199 -434 -204 -443 -250 -465 -84 -39
-398 -139 -420 -133 -14 4 -42 39 -81 103 -47 79 -57 103 -53 128 3 18 47 117
99 221 52 104 109 223 127 264 19 41 40 81 47 89 7 8 95 45 196 82 101 38 194
78 208 88 31 25 28 25 51 -1z m698 -194 c37 -73 65 -142 64 -159 0 -30 -233
-544 -261 -578 -9 -10 -61 -31 -116 -48 -56 -17 -160 -50 -233 -74 l-132 -43
-61 121 c-33 67 -60 131 -60 143 0 11 54 136 120 278 66 141 120 260 120 264
1 14 37 50 66 65 17 9 37 23 44 32 12 14 15 15 20 3 4 -11 43 2 175 58 94 40
175 72 180 70 6 -1 39 -61 74 -132z m1230 -56 c-10 -57 -34 -229 -54 -383 -49
-376 -45 -363 -78 -225 -40 164 -76 280 -87 280 -10 0 21 61 148 293 41 75 78
137 82 137 4 0 -1 -46 -11 -102z m-661 60 c11 -14 138 -395 148 -444 5 -26
-13 -69 -113 -265 l-118 -234 -70 -23 c-139 -45 -447 -132 -454 -128 -9 6 -47
97 -97 231 -44 118 -50 86 78 360 150 317 158 333 175 340 10 4 86 33 168 65
83 33 173 70 200 84 57 29 69 31 83 14z m3149 -106 c22 -48 75 -162 117 -253
45 -98 74 -173 70 -182 -3 -9 -36 -41 -72 -71 -37 -30 -81 -67 -98 -83 -16
-15 -68 -61 -115 -102 -46 -41 -106 -96 -134 -122 l-50 -46 -145 -12 c-80 -6
-242 -14 -360 -17 l-216 -7 -15 24 c-9 13 -47 116 -86 229 -39 113 -80 228
-91 257 l-21 52 82 74 c45 41 129 117 186 168 187 169 149 151 329 156 135 4
278 10 523 20 l56 3 40 -88z m-1992 -3 c4 -23 27 -100 51 -172 24 -72 44 -140
44 -150 0 -11 -16 -43 -36 -71 -58 -81 -177 -226 -182 -222 -2 3 7 65 21 138
14 73 33 196 42 272 30 253 44 300 60 205z m-698 -361 c12 -40 31 -118 43
-172 11 -55 23 -102 25 -106 19 -31 26 -226 8 -239 -4 -3 -18 -24 -29 -46 -12
-22 -47 -83 -79 -135 -32 -52 -67 -114 -78 -137 -12 -24 -28 -43 -36 -43 -8 0
-51 -11 -95 -24 -123 -36 -144 -39 -155 -17 -6 10 -37 110 -70 222 l-60 204
117 235 c64 129 118 236 118 238 2 4 246 89 259 91 6 0 20 -32 32 -71z m1183
24 l271 -2 20 -47 c21 -50 152 -439 162 -483 5 -21 -6 -39 -65 -105 -39 -44
-122 -139 -185 -212 -106 -123 -116 -132 -156 -137 -23 -3 -162 -7 -309 -8
l-268 -3 -9 25 c-12 32 -54 175 -77 260 -9 36 -21 71 -27 77 -12 17 11 247 30
293 8 19 27 49 42 65 38 41 155 195 170 223 17 32 65 59 101 57 17 -1 152 -2
300 -3z m-4189 -146 c32 -68 59 -131 59 -140 0 -21 -101 -222 -193 -386 -39
-69 -77 -137 -84 -152 -19 -36 -23 -38 -98 -49 -59 -8 -325 -99 -351 -120 -15
-12 -43 21 -98 117 -55 95 -55 97 14 204 47 73 247 428 270 481 10 22 31 33
124 65 61 21 147 53 191 71 44 18 86 33 93 33 7 0 40 -56 73 -124z m6849 -68
c63 -84 131 -173 152 -197 21 -24 38 -47 38 -50 0 -9 -428 -519 -451 -537 -8
-6 -27 -14 -42 -18 -78 -19 -511 -64 -692 -72 l-140 -7 -34 69 c-105 215 -223
493 -217 512 3 10 52 58 108 107 56 50 127 113 158 141 30 27 84 75 120 105
l65 56 80 1 c120 3 679 33 684 38 2 2 16 4 31 4 23 0 43 -22 140 -152z m-6295
21 c59 -85 95 -151 95 -170 0 -25 -57 -149 -114 -248 -24 -42 -74 -134 -111
-206 -37 -71 -72 -135 -79 -141 -17 -17 -109 -49 -243 -84 -65 -17 -137 -38
-161 -46 -23 -8 -48 -14 -55 -14 -7 0 -36 49 -66 109 l-53 109 19 29 c33 46
166 289 241 439 l71 141 58 21 c32 12 99 32 148 46 50 13 115 33 145 44 30 11
59 19 65 18 5 -1 23 -22 40 -47z m660 -141 c31 -68 57 -132 57 -143 0 -11 -28
-78 -62 -150 -202 -421 -219 -453 -247 -472 -34 -24 -88 -43 -258 -87 -72 -19
-145 -39 -163 -44 -31 -10 -33 -9 -58 30 -14 22 -46 82 -71 133 l-45 93 103
194 c57 106 128 241 157 299 l53 106 199 67 c109 36 213 73 232 81 18 8 36 14
39 15 3 0 32 -55 64 -122z m6879 -110 c119 -128 216 -238 216 -246 0 -25 -93
-194 -325 -590 -75 -126 -95 -154 -120 -162 -16 -5 -102 -23 -190 -39 -88 -16
-205 -39 -260 -50 -341 -69 -428 -82 -441 -69 -7 7 -56 85 -109 173 -54 88
-103 167 -109 175 -45 54 -147 231 -140 242 4 7 38 49 75 93 37 44 133 159
214 255 l146 175 117 37 c64 20 200 66 302 102 307 108 384 134 397 135 6 1
109 -104 227 -231z m-6245 -49 c33 -88 61 -168 61 -178 0 -20 -61 -160 -177
-407 l-84 -182 -72 -21 c-40 -11 -115 -30 -167 -41 -53 -11 -132 -31 -175 -45
l-80 -25 -16 21 c-8 11 -44 73 -79 137 l-63 116 36 70 c31 61 144 294 248 512
23 48 36 63 57 69 20 4 291 89 417 130 6 2 15 4 21 4 6 1 39 -71 73 -160z
m7707 -181 c137 -139 289 -295 336 -345 l87 -93 -16 -37 c-18 -44 -36 -84
-188 -408 -155 -329 -204 -428 -218 -441 -18 -17 -460 -92 -787 -134 -85 -11
-182 -25 -215 -30 -33 -5 -65 -10 -72 -10 -6 0 -37 33 -67 73 -31 39 -94 122
-140 182 -47 61 -144 184 -216 275 -72 91 -135 172 -140 181 -6 11 10 48 62
135 39 65 133 229 210 364 76 135 147 251 156 258 19 14 77 32 342 107 172 48
344 98 535 155 33 10 65 18 70 19 6 0 123 -113 261 -251z m-7080 101 c7 -24
33 -116 59 -204 26 -88 50 -168 53 -178 2 -10 -13 -57 -36 -105 -75 -162 -131
-289 -178 -403 -25 -63 -50 -119 -55 -125 -11 -13 -143 -51 -314 -89 -66 -15
-124 -32 -129 -36 -15 -13 -62 -11 -73 4 -6 6 -34 86 -63 177 -29 91 -59 184
-66 207 l-14 41 70 144 c38 78 101 213 139 298 80 179 56 160 286 226 72 20
166 49 210 65 44 15 85 27 90 25 6 -1 15 -22 21 -47z m2979 -6 c10 -20 30 -66
45 -102 15 -36 64 -147 109 -246 45 -99 79 -185 77 -192 -10 -25 -389 -505
-411 -519 -28 -18 -285 -34 -563 -34 l-203 0 -14 33 c-7 17 -45 138 -85 267
-39 129 -82 265 -95 303 l-23 68 41 49 c79 92 230 265 280 320 l50 54 256 8
c141 5 292 12 336 17 44 5 103 9 131 10 50 1 52 0 69 -36z m-2385 -104 c-21
-163 -100 -735 -115 -839 -9 -58 -18 -121 -21 -140 -2 -19 -15 -109 -29 -200
-13 -91 -34 -232 -46 -315 -12 -82 -25 -154 -29 -158 -4 -5 -10 11 -14 35 -4
24 -20 100 -38 170 l-30 127 31 48 c38 56 127 237 136 273 8 37 -4 17 -98
-159 -79 -148 -84 -154 -122 -166 -47 -13 -224 -40 -229 -34 -3 2 -16 47 -29
99 -14 52 -39 146 -56 208 -17 62 -31 122 -31 134 0 23 65 180 187 450 64 143
78 167 101 174 15 4 31 6 35 6 4 -1 48 9 98 24 68 19 93 23 104 14 10 -9 14
-5 19 17 4 15 36 75 71 133 36 58 75 124 87 147 12 24 23 41 26 39 2 -2 -2
-42 -8 -87z m525 -184 c16 -55 34 -112 42 -128 12 -24 12 -32 -6 -70 -22 -45
-177 -270 -190 -275 -4 -1 -2 33 5 75 7 43 20 137 29 208 17 136 40 303 52
369 l6 39 18 -59 c9 -33 29 -104 44 -159z m-4383 -11 c24 -42 53 -92 66 -110
28 -44 28 -65 -2 -113 -13 -21 -48 -80 -76 -132 -72 -130 -219 -369 -242 -395
-11 -12 -36 -27 -56 -33 -20 -5 -81 -25 -134 -44 -54 -19 -98 -31 -98 -27 0 5
-28 -1 -62 -11 -34 -11 -68 -18 -76 -17 -7 2 -33 56 -58 122 -43 118 -43 119
-25 145 23 32 255 420 281 470 41 79 56 88 240 155 96 35 181 64 187 65 7 1
32 -33 55 -75z m575 -94 c77 -155 79 -132 -24 -331 -176 -343 -244 -459 -277
-474 -51 -23 -207 -86 -261 -105 -27 -10 -66 -25 -87 -34 l-36 -16 -69 134
c-67 131 -69 135 -52 158 45 62 280 461 332 565 14 26 34 56 45 66 26 24 330
128 362 125 20 -3 33 -18 67 -88z m632 -150 c64 -128 65 -131 52 -168 -26 -73
-293 -599 -314 -618 -14 -13 -149 -58 -312 -104 -60 -17 -121 -36 -134 -43
-20 -10 -26 -8 -43 13 -11 14 -47 79 -79 144 l-59 119 39 66 c52 88 165 300
235 439 32 63 69 124 84 137 17 15 69 35 147 55 66 17 158 44 205 60 47 16 92
29 100 29 9 0 39 -48 79 -129z m3886 15 c14 -49 41 -139 60 -200 77 -250 86
-281 91 -319 5 -40 3 -44 -138 -212 -79 -94 -165 -199 -191 -233 l-48 -62
-269 2 c-183 1 -273 5 -279 13 -13 16 -122 457 -128 520 -3 28 -1 82 5 119 10
60 18 76 80 160 38 50 96 133 129 182 33 50 69 98 80 107 17 16 50 18 294 20
151 2 277 1 281 -2 3 -3 18 -45 33 -95z m2397 -100 c141 -219 227 -363 234
-391 7 -26 -24 -73 -185 -290 -59 -78 -132 -177 -163 -220 -32 -44 -75 -98
-95 -121 -35 -40 -43 -43 -98 -48 -163 -13 -373 -26 -589 -35 -193 -9 -242 -8
-252 2 -13 13 -44 93 -130 328 -26 69 -63 169 -84 223 l-38 97 25 37 c14 20
81 109 151 197 69 89 145 186 168 216 72 94 52 88 329 110 136 11 257 22 269
25 11 3 75 9 142 15 66 6 133 15 150 20 16 4 35 8 42 7 8 -1 63 -78 124 -172z
m-5682 -2 c24 -43 58 -104 78 -135 28 -46 34 -65 29 -92 -5 -31 -76 -195 -199
-456 -30 -63 -60 -130 -67 -147 -15 -37 -31 -43 -171 -69 -47 -9 -145 -30
-219 -47 l-134 -31 -23 29 c-31 38 -134 220 -134 235 0 7 8 24 19 38 10 15 85
160 166 322 80 162 150 298 154 302 4 4 27 12 51 17 57 12 171 45 280 80 127
42 122 43 170 -46z m679 -269 c96 -292 94 -251 23 -412 -33 -75 -95 -220 -138
-320 -65 -154 -82 -185 -103 -194 -14 -5 -90 -18 -167 -28 -78 -11 -162 -24
-185 -29 -24 -6 -61 -11 -82 -11 -42 0 -41 -2 -97 155 -17 50 -35 99 -40 110
-51 124 -53 113 55 338 82 171 195 429 195 445 0 6 5 14 11 18 14 8 426 112
451 113 13 1 30 -39 77 -185z m6243 -47 c56 -73 118 -152 210 -268 64 -80 134
-170 243 -310 27 -35 48 -69 47 -76 -9 -43 -477 -800 -513 -830 -8 -6 -34 -14
-58 -17 -76 -9 -712 -28 -841 -24 l-124 3 -109 195 c-110 198 -272 502 -294
552 -11 25 -9 32 24 75 64 83 208 276 239 319 113 160 179 249 195 262 10 8
35 17 56 19 44 4 292 50 508 94 132 27 332 64 360 68 6 0 31 -27 57 -62z
m-5587 -204 c15 -60 41 -150 57 -202 15 -51 28 -104 28 -117 0 -13 -30 -97
-66 -187 -193 -473 -210 -513 -236 -535 -15 -12 -62 -20 -288 -47 -194 -24
-190 -25 -217 60 -71 230 -97 323 -96 350 0 17 28 95 63 175 35 80 82 190 105
245 53 126 99 218 117 233 8 6 99 32 204 57 104 25 209 52 234 60 25 7 50 14
56 14 6 1 24 -47 39 -106z m2990 -108 c105 -276 165 -440 170 -471 5 -25 -6
-43 -87 -140 -217 -259 -351 -413 -366 -421 -19 -9 -704 -17 -737 -9 -18 5
-26 22 -44 93 -12 49 -37 142 -55 208 -19 66 -52 186 -75 267 -22 82 -41 156
-41 165 1 19 81 123 255 332 l100 120 250 2 c138 1 302 5 365 9 63 4 135 7
160 6 l45 -1 60 -160z m-1859 -252 c6 -45 3 -57 -25 -105 -57 -96 -204 -304
-197 -278 40 147 61 271 96 575 12 99 24 187 27 195 6 17 90 -309 99 -387z"/>
<path d="M14740 9250 c-9 -6 -10 -10 -3 -10 6 0 15 5 18 10 8 12 4 12 -15 0z"/>
<path d="M13995 9100 c-13 -6 -15 -9 -5 -9 8 0 22 4 30 9 18 12 2 12 -25 0z"/>
<path d="M13690 8980 c-13 -9 -13 -10 0 -10 8 0 22 5 30 10 13 9 13 10 0 10
-8 0 -22 -5 -30 -10z"/>
<path d="M13170 8970 c-8 -5 -10 -10 -5 -10 6 0 17 5 25 10 8 5 11 10 5 10 -5
0 -17 -5 -25 -10z"/>
<path d="M12745 8940 c-13 -6 -15 -9 -5 -9 8 0 22 4 30 9 18 12 2 12 -25 0z"/>
<path d="M13678 8943 c7 -3 16 -2 19 1 4 3 -2 6 -13 5 -11 0 -14 -3 -6 -6z"/>
<path d="M12819 8780 c-20 -16 -21 -19 -7 -20 10 0 22 9 28 20 13 25 8 25 -21
0z"/>
<path d="M12960 8751 c0 -5 7 -12 16 -15 14 -5 15 -4 4 9 -14 17 -20 19 -20 6z"/>
<path d="M12650 8708 c-80 -38 -176 -75 -350 -135 -47 -16 -99 -26 -142 -27
-36 0 -64 -4 -61 -8 2 -5 0 -8 -5 -8 -5 0 -23 -19 -42 -42 l-32 -43 36 37 c39
40 49 44 136 52 79 6 344 98 469 161 123 63 116 72 -9 13z"/>
<path d="M13048 8733 c7 -3 16 -2 19 1 4 3 -2 6 -13 5 -11 0 -14 -3 -6 -6z"/>
<path d="M12084 8601 c4 -6 16 -16 28 -22 15 -8 18 -8 14 0 -4 6 -16 16 -28
22 -15 8 -18 8 -14 0z"/>
<path d="M11460 8530 c-9 -6 -10 -10 -3 -10 6 0 15 5 18 10 8 12 4 12 -15 0z"/>
<path d="M10785 8520 c-3 -5 -1 -10 4 -10 6 0 11 5 11 10 0 6 -2 10 -4 10 -3
0 -8 -4 -11 -10z"/>
<path d="M10778 8453 c7 -3 16 -2 19 1 4 3 -2 6 -13 5 -11 0 -14 -3 -6 -6z"/>
<path d="M9774 8344 c-18 -14 -18 -15 4 -4 12 6 22 13 22 15 0 8 -5 6 -26 -11z"/>
<path d="M10565 8305 c-16 -14 -60 -44 -97 -66 -76 -46 -117 -85 -58 -54 54
27 142 90 169 119 31 33 25 33 -14 1z"/>
<path d="M10955 8171 c-6 -4 -37 -19 -70 -32 -55 -21 -108 -49 -93 -49 19 0
165 67 173 80 8 12 2 13 -10 1z"/>
<path d="M10330 8149 c-22 -18 -22 -19 -3 -10 12 6 25 16 28 21 9 15 3 12 -25
-11z"/>
<path d="M10437 8089 c7 -7 15 -10 18 -7 3 3 -2 9 -12 12 -14 6 -15 5 -6 -5z"/>
<path d="M8735 8020 c-3 -5 -24 -10 -46 -10 -21 0 -39 -4 -39 -10 0 -16 52
-11 90 10 21 11 28 19 18 20 -9 0 -20 -4 -23 -10z"/>
<path d="M8774 7995 c11 -8 29 -15 40 -15 25 0 19 4 -24 18 -32 11 -33 10 -16
-3z"/>
<path d="M8445 7970 c-3 -6 1 -7 9 -4 18 7 21 14 7 14 -6 0 -13 -4 -16 -10z"/>
<path d="M8878 7953 c6 -2 18 -2 25 0 6 3 1 5 -13 5 -14 0 -19 -2 -12 -5z"/>
<path d="M9085 7950 c-16 -7 -17 -9 -3 -9 9 -1 20 4 23 9 7 11 7 11 -20 0z"/>
<path d="M8940 7942 c47 -16 95 -23 84 -12 -5 5 -32 12 -59 15 -34 3 -42 2
-25 -3z"/>
<path d="M8968 7823 c7 -3 16 -2 19 1 4 3 -2 6 -13 5 -11 0 -14 -3 -6 -6z"/>
<path d="M10065 7650 c-3 -5 0 -10 9 -10 8 0 31 -19 51 -42 23 -27 32 -34 24
-18 -33 68 -68 97 -84 70z"/>
<path d="M11420 8775 c-14 -8 -20 -14 -14 -15 5 0 19 7 30 15 24 18 16 19 -16
0z"/>
<path d="M9360 7380 c0 -5 5 -10 11 -10 5 0 7 5 4 10 -3 6 -8 10 -11 10 -2 0
-4 -4 -4 -10z"/>
<path d="M5354 2038 c12 -45 22 -74 24 -64 4 21 -28 146 -38 146 -4 0 3 -37
14 -82z"/>
<path d="M5380 1933 c0 -36 23 -123 33 -123 5 0 6 7 3 16 -3 9 -9 34 -12 57
-8 51 -23 83 -24 50z"/>
<path d="M14950 9264 c-25 -14 -36 -22 -25 -19 66 22 105 37 105 41 0 11 -40
0 -80 -22z"/>
<path d="M6588 8443 c6 -2 18 -2 25 0 6 3 1 5 -13 5 -14 0 -19 -2 -12 -5z"/>
<path d="M6060 7970 c-8 -5 -12 -12 -9 -15 4 -3 12 1 19 10 14 17 11 19 -10 5z"/>
<path d="M5977 7908 c-31 -23 -55 -43 -53 -46 6 -5 59 32 96 65 37 34 22 27
-43 -19z"/>
<path d="M4722 6920 c-23 -49 -56 -102 -72 -119 -22 -21 -25 -29 -12 -27 22 3
64 66 107 161 48 105 29 93 -23 -15z"/>
<path d="M4580 6755 c-14 -8 -20 -14 -14 -15 5 0 19 7 30 15 24 18 16 19 -16
0z"/>
<path d="M4650 6757 c0 -2 15 -16 33 -33 l32 -29 -29 33 c-28 30 -36 37 -36
29z"/>
<path d="M3444 6398 l-29 -33 33 29 c30 28 37 36 29 36 -2 0 -16 -15 -33 -32z"/>
<path d="M3647 6333 c-26 -20 -56 -63 -99 -143 -35 -64 -80 -132 -103 -155
-23 -22 -88 -64 -148 -94 -59 -30 -107 -56 -107 -57 0 -7 87 29 151 62 103 54
141 94 205 217 37 71 72 123 102 152 53 51 53 58 -1 18z"/>
<path d="M4840 6290 c-58 -28 -97 -50 -88 -50 24 0 85 25 160 66 94 50 48 40
-72 -16z"/>
<path d="M3467 5830 c-42 -133 -79 -167 -347 -313 -69 -38 -129 -73 -135 -78
-10 -10 101 37 120 51 6 4 46 27 90 50 81 43 159 93 183 117 7 7 20 13 27 13
23 0 90 162 83 197 -3 11 -12 -5 -21 -37z"/>
<path d="M3001 5854 c0 -11 3 -14 6 -6 3 7 2 16 -1 19 -3 4 -6 -2 -5 -13z"/>
<path d="M2972 5763 c-12 -25 -20 -48 -18 -50 2 -2 14 17 26 42 12 25 21 48
18 50 -2 2 -14 -17 -26 -42z"/>
<path d="M2894 5603 c-27 -53 -63 -110 -80 -127 -17 -17 -91 -64 -165 -105
-198 -110 -220 -123 -215 -128 3 -3 31 10 63 29 32 19 76 43 98 55 118 62 159
86 205 118 41 29 54 34 66 24 10 -8 14 -8 14 0 0 6 -5 11 -11 11 -18 0 -3 54
27 101 22 36 58 119 50 119 -1 0 -24 -44 -52 -97z"/>
<path d="M2322 5328 c-18 -18 -15 -33 3 -18 13 11 20 9 42 -11 21 -18 24 -19
13 -4 -19 25 -37 45 -42 45 -2 0 -9 -5 -16 -12z"/>
<path d="M2239 5253 c-13 -17 -13 -17 6 -3 11 8 22 16 24 17 2 2 0 3 -6 3 -6
0 -17 -8 -24 -17z"/>
<path d="M3350 5137 c8 -7 21 -19 28 -27 11 -13 11 -10 1 13 -7 15 -19 27 -28
27 -14 -1 -14 -2 -1 -13z"/>
<path d="M1810 4836 c0 -2 8 -10 18 -17 15 -13 16 -12 3 4 -13 16 -21 21 -21
13z"/>
<path d="M2125 4800 c-3 -5 -1 -10 4 -10 6 0 11 5 11 10 0 6 -2 10 -4 10 -3 0
-8 -4 -11 -10z"/>
<path d="M1859 4768 l22 -37 -21 -41 c-22 -43 -89 -151 -99 -160 -13 -11 -70
-99 -104 -162 -36 -64 -41 -69 -115 -104 -42 -20 -108 -50 -147 -66 -38 -16
-79 -35 -90 -42 -11 -7 -34 -16 -50 -20 -26 -5 -33 -2 -53 30 -31 48 -37 38
-11 -16 14 -29 19 -53 15 -73 -3 -16 -40 -81 -81 -144 -41 -62 -86 -135 -99
-161 -14 -27 -32 -54 -40 -61 -9 -8 -16 -19 -16 -25 0 -6 -25 -28 -56 -49 -62
-41 -64 -48 -6 -18 52 26 99 76 129 136 14 28 51 88 83 135 70 104 113 187
106 206 -3 9 4 16 22 21 26 6 271 118 323 148 24 13 29 13 52 -5 33 -26 45
-26 22 0 -23 26 -22 28 97 211 52 79 111 170 131 202 30 46 47 62 92 83 31 15
54 29 52 31 -3 2 -30 -9 -62 -24 l-57 -28 -30 35 -31 35 22 -37z"/>
<path d="M1676 4195 c8 -35 10 -38 22 -34 5 2 0 18 -10 34 l-19 30 7 -30z"/>
<path d="M845 3978 c-84 -106 -156 -182 -268 -287 -37 -35 -66 -65 -63 -68 10
-11 216 193 299 297 110 137 120 150 115 155 -2 2 -39 -42 -83 -97z"/>
<path d="M554 3948 l-29 -33 33 29 c30 28 37 36 29 36 -2 0 -16 -15 -33 -32z"/>
<path d="M394 3788 l-19 -23 23 19 c21 18 27 26 19 26 -2 0 -12 -10 -23 -22z"/>
<path d="M618 3480 c-28 -45 -132 -210 -187 -295 l-54 -84 -81 -32 c-85 -34
-130 -58 -122 -67 3 -2 16 2 28 10 13 8 57 27 99 42 83 29 108 53 164 151 32
57 104 170 147 233 16 23 28 48 26 54 -3 8 -11 2 -20 -12z"/>
<path d="M620 2310 c6 -11 13 -20 16 -20 2 0 0 9 -6 20 -6 11 -13 20 -16 20
-2 0 0 -9 6 -20z"/>
<path d="M170 595 c0 -9 -5 -21 -11 -28 -26 -29 -159 -268 -159 -286 0 -8 2
-12 3 -10 10 12 127 208 127 213 0 3 14 28 30 56 32 54 36 70 20 70 -5 0 -10
-7 -10 -15z"/>
<path d="M1688 259 c-10 -5 -99 -36 -197 -69 -190 -62 -235 -80 -213 -88 7 -2
18 1 25 6 7 5 46 20 87 32 153 44 330 112 330 126 0 7 -14 4 -32 -7z"/>
<path d="M1760 249 c0 -4 7 -22 15 -40 8 -19 14 -27 14 -19 0 14 -28 72 -29
59z"/>
<path d="M1244 72 c-11 -7 -48 -72 -41 -72 3 0 16 18 31 40 27 42 28 45 10 32z"/>
</g>
</svg>
