<svg xmlns="http://www.w3.org/2000/svg" width="1200" height="630" viewBox="0 0 1200 630" role="img" aria-labelledby="title desc">
  <title id="title">Fixture Mundial 2026</title>
  <desc id="desc">Imagen social del proyecto de portfolio Fixture Mundial 2026.</desc>
  <rect width="1200" height="630" fill="#06152f"/>
  <circle cx="1040" cy="90" r="260" fill="#00b8d4" opacity=".18"/>
  <circle cx="120" cy="560" r="260" fill="#1f9d63" opacity=".2"/>
  <path d="M780 160h150v58c0 72-31 120-75 134-44-14-75-62-75-134z" fill="#f2b632"/>
  <path d="M780 200h-70c0 64 31 105 83 119M930 200h70c0 64-31 105-83 119" fill="none" stroke="#f2b632" stroke-width="36" stroke-linecap="round" stroke-linejoin="round"/>
  <path d="M832 354h46v58h68v42H764v-42h68z" fill="#f2b632"/>
  <path d="M820 202h72" stroke="#fff5c2" stroke-width="18" stroke-linecap="round" opacity=".75"/>
  <text x="96" y="190" fill="#f2b632" font-family="Inter, Arial, sans-serif" font-size="38" font-weight="800" letter-spacing="8">PROYECTO DE PORTFOLIO</text>
  <text x="96" y="300" fill="#ffffff" font-family="Inter, Arial, sans-serif" font-size="82" font-weight="900">Fixture Mundial 2026</text>
  <text x="96" y="380" fill="#c8d6e5" font-family="Inter, Arial, sans-serif" font-size="36" font-weight="700">Fixture, tablas, eliminatorias y predicciones</text>
  <text x="96" y="472" fill="#ffffff" font-family="Inter, Arial, sans-serif" font-size="30" font-weight="800">React + Vite · CSS Modules · Redux Toolkit</text>
</svg>
